<svg width="213" height="41" viewBox="0 0 213 41" fill="none" xmlns="http://www.w3.org/2000/svg">
<path fill-rule="evenodd" clip-rule="evenodd" d="M12.0111 20.6658V16.3291L0.0228271 20.785H0.00012207V25.2351H0.0228271L12.0111 29.691V25.3487L5.86369 22.9987L12.0111 20.6601V20.6658Z" fill="#F7DD43"/>
<path fill-rule="evenodd" clip-rule="evenodd" d="M81.4487 29.4752V25.1386L87.5904 22.8056L81.4487 20.4727V16.136L93.4199 20.5919H93.4483V25.0477H93.4199L81.4487 29.4809V29.4752ZM76.306 10L69.2674 32.5972H73.4451L80.4837 10H76.306Z" fill="#F7DD43"/>
<path fill-rule="evenodd" clip-rule="evenodd" d="M29.6247 15.733C30.8167 17.0385 31.4411 18.7641 31.3673 20.5294V30.1564H27.1895V21.4149C27.2406 20.4386 26.9284 19.485 26.3154 18.7244C25.7364 18.0489 24.8793 17.6743 23.9881 17.714C21.3714 17.714 20.0602 19.5304 20.0602 23.1575V30.1564H15.8824V14.3537H20.0602V15.7784C21.3884 14.4899 23.1878 13.8031 25.0382 13.8825C26.7638 13.8088 28.4326 14.4842 29.6247 15.733Z" fill="#F7DD43"/>
<path fill-rule="evenodd" clip-rule="evenodd" d="M36.6916 7.55923V30.1564H40.8693V7.55923H36.6916Z" fill="#F7DD43"/>
<path fill-rule="evenodd" clip-rule="evenodd" d="M64.4935 30.1564H61.0083L57.5912 20.8473L54.14 30.1564H50.6548L44.7969 14.3253H49.2641L52.5564 23.7933L55.9508 14.3253H59.2146L62.609 23.8217L65.9012 14.3253H70.3684L64.5049 30.1564H64.4935Z" fill="#F7DD43"/>
<path d="M116.135 40.5478C111.855 40.5478 107.357 39.7367 103.832 37.7832V3.31672C107.302 1.41843 111.799 0.552096 116.135 0.552096C120.471 0.552096 124.862 1.36322 128.328 3.31672V16.541H119.601V7.54221C118.573 7.10904 117.324 6.94767 116.08 6.94767C114.836 6.94767 113.693 7.10904 112.61 7.54221V33.5577C113.638 33.9908 114.831 34.1522 116.08 34.1522C117.329 34.1522 118.518 33.9908 119.601 33.5577V24.5631H128.328V37.7874C124.913 39.6857 120.416 40.4968 116.135 40.552V40.5478Z" fill="#F7DD43"/>
<path d="M144.695 40.5477C140.087 40.5477 135.645 39.571 132.12 37.5665V3.47803C135.59 1.52878 140.036 0.552032 144.695 0.552032C149.353 0.552032 153.689 1.47357 157.159 3.47803V37.5665C153.744 39.571 149.247 40.4925 144.695 40.5477ZM148.436 7.65256C147.408 7.2194 146.16 7.00281 144.644 7.00281C143.128 7.00281 141.934 7.2194 140.902 7.65256V33.3962C141.93 33.8846 143.179 34.1012 144.644 34.1012C146.109 34.1012 147.353 33.8846 148.436 33.3962V7.65256Z" fill="#F7DD43"/>
<path d="M172.387 25.9135H170.056V40.0594H161.223V1.04043H172.387C177.7 1.04043 181.709 2.12335 184.852 4.34439V22.6096C181.764 24.7796 177.696 25.9135 172.387 25.9135ZM176.074 7.75876C175.262 7.16421 174.175 6.89242 172.332 6.89242H169.946V20.0615H172.332C174.12 20.0615 175.203 19.7897 176.074 19.2504V7.75876Z" fill="#F7DD43"/>
<path d="M203.329 40.0593V25.9135H196.827V40.0593H188.049V3.42282C191.247 1.52453 195.744 0.552032 200.08 0.552032C204.416 0.552032 208.858 1.52878 212.056 3.42282V40.0593H203.329ZM203.329 7.32556C202.408 6.8924 201.269 6.67582 200.076 6.67582C198.883 6.67582 197.745 6.8924 196.823 7.32556V19.7345H203.325V7.32556H203.329Z" fill="#F7DD43"/>
</svg>
