<svg width="134" height="24" viewBox="0 0 134 24" fill="none" xmlns="http://www.w3.org/2000/svg">
<path fill-rule="evenodd" clip-rule="evenodd" d="M7.54438 12.0682V9.46625L0.0142616 12.1398H0V14.8099H0.0142616L7.54438 17.4834V14.878L3.68305 13.468L7.54438 12.0648V12.0682Z" fill="white"/>
<path fill-rule="evenodd" clip-rule="evenodd" d="M51.1599 17.3539V14.7519L55.0176 13.3522L51.1599 11.9524V9.35041L58.6793 12.0239H58.6971V14.6974H58.6793L51.1599 17.3573V17.3539ZM47.9296 5.66879L43.5085 19.2271H46.1327L50.5538 5.66879H47.9296Z" fill="white"/>
<path fill-rule="evenodd" clip-rule="evenodd" d="M18.6079 9.10859C19.3566 9.89192 19.7488 10.9273 19.7025 11.9865V17.7626H17.0783V12.5178C17.1104 11.932 16.9143 11.3598 16.5293 10.9034C16.1656 10.4981 15.6272 10.2734 15.0675 10.2972C13.4238 10.2972 12.6002 11.387 12.6002 13.5633V17.7626H9.97607V8.281H12.6002V9.13584C13.4345 8.36273 14.5647 7.95064 15.7271 7.99832C16.8109 7.95405 17.8592 8.35933 18.6079 9.10859Z" fill="white"/>
<path fill-rule="evenodd" clip-rule="evenodd" d="M23.0469 4.20435V17.7626H25.671V4.20435H23.0469Z" fill="white"/>
<path fill-rule="evenodd" clip-rule="evenodd" d="M40.51 17.7626H38.3208L36.1745 12.1772L34.0067 17.7626H31.8175L28.1381 8.26398H30.944L33.012 13.9448L35.1441 8.26398H37.1942L39.3263 13.9618L41.3942 8.26398H44.2002L40.5171 17.7626H40.51Z" fill="white"/>
<path d="M72.9474 23.9974C70.2586 23.9974 67.4337 23.5108 65.2197 22.3387V1.65881C67.3991 0.519838 70.2239 3.80731e-05 72.9474 3.80731e-05C75.6709 3.80731e-05 78.4291 0.486713 80.6057 1.65881V9.5934H75.1241V4.19411C74.4785 3.93421 73.6943 3.83738 72.9127 3.83738C72.1312 3.83738 71.4136 3.93421 70.7334 4.19411V19.8034C71.3789 20.0633 72.1285 20.1601 72.9127 20.1601C73.697 20.1601 74.4439 20.0633 75.1241 19.8034V14.4066H80.6057V22.3412C78.4611 23.4802 75.6362 23.9669 72.9474 24V23.9974Z" fill="white"/>
<path d="M90.8863 23.9974C87.9921 23.9974 85.2019 23.4114 82.9879 22.2087V1.7556C85.1672 0.586048 87.9601 0 90.8863 0C93.8125 0 96.536 0.552924 98.7153 1.7556V22.2087C96.5707 23.4114 93.7458 23.9643 90.8863 23.9974ZM93.2363 4.26032C92.5908 4.00042 91.8066 3.87047 90.8543 3.87047C89.902 3.87047 89.1524 4.00042 88.5042 4.26032V19.7065C89.1498 19.9995 89.934 20.1295 90.8543 20.1295C91.7746 20.1295 92.5561 19.9995 93.2363 19.7065V4.26032Z" fill="white"/>
<path d="M108.281 15.2169H106.816V23.7044H101.268V0.293039H108.281C111.618 0.293039 114.136 0.942789 116.11 2.27541V13.2345C114.171 14.5366 111.615 15.2169 108.281 15.2169ZM110.596 4.32403C110.087 3.96731 109.404 3.80423 108.246 3.80423H106.747V11.7057H108.246C109.369 11.7057 110.049 11.5426 110.596 11.219V4.32403Z" fill="white"/>
<path d="M127.716 23.7044V15.2169H123.632V23.7044H118.118V1.72247C120.127 0.583501 122.952 0 125.675 0C128.399 0 131.189 0.586049 133.198 1.72247V23.7044H127.716ZM127.716 4.06412C127.137 3.80422 126.422 3.67427 125.673 3.67427C124.923 3.67427 124.208 3.80422 123.629 4.06412V11.5095H127.713V4.06412H127.716Z" fill="white"/>
</svg>
